<?xml version="1.0" standalone="no"?>
<!DOCTYPE svg PUBLIC "-//W3C//DTD SVG 20010904//EN"
 "http://www.w3.org/TR/2001/REC-SVG-20010904/DTD/svg10.dtd">
<svg version="1.0" xmlns="http://www.w3.org/2000/svg"
 width="166.000000pt" height="166.000000pt" viewBox="0 0 166.000000 166.000000"
 preserveAspectRatio="xMidYMid meet">
<metadata>
Created by potrace 1.14, written by Peter Selinger 2001-2017
</metadata>
<g transform="translate(0.000000,166.000000) scale(0.100000,-0.100000)"
fill="#000000" stroke="none">
<path d="M690 1644 c-200 -51 -367 -200 -434 -389 -23 -64 -31 -213 -17 -289
12 -63 90 -238 141 -312 16 -25 30 -47 30 -50 0 -3 13 -24 29 -47 15 -23 33
-52 40 -65 l12 -22 -79 1 c-58 1 -86 -3 -104 -15 -26 -17 -116 -187 -148 -281
-10 -29 -17 -76 -16 -110 l1 -60 685 0 685 0 3 66 c3 63 0 73 -62 209 -36 78
-77 153 -91 166 -26 24 -36 26 -137 26 -46 0 -47 1 -36 21 6 12 14 24 17 27
19 16 88 132 139 235 67 136 83 197 82 330 0 253 -156 459 -413 545 -67 23
-99 28 -177 28 -52 0 -120 -7 -150 -14z"/>
</g>
</svg>
